<svg width="128" height="128" viewBox="0 0 128 128" fill="none" xmlns="http://www.w3.org/2000/svg">
  <defs>
    <linearGradient id="gradC" x1="0%" y1="0%" x2="100%" y2="100%">
      <stop offset="0%" style="stop-color:#ff9a52"/>
      <stop offset="100%" style="stop-color:#c45c3e"/>
    </linearGradient>
  </defs>

  <!-- 背景 -->
  <rect width="128" height="128" rx="24" fill="url(#gradC)"/>

  <!-- 方案C: 意向化抽象 - p与XY融合 -->
  <!-- 抽象的p形状，与XY交织 -->
  <path d="M30 36 L30 92 L46 92 L46 68 L54 68 L54 92 L68 92 L68 68 L54 68 Q54 56 64 56 Q74 56 78 46 L82 36 L64 36 Q58 36 54 42 L54 56 L46 56 L46 36 Z" fill="white" opacity="0.9"/>
  <path d="M68 36 L68 92 L82 92 L82 72 L92 72 L92 92 L106 92 L106 72 L92 72 Q92 60 102 60 L106 56 L106 36 L92 36 L92 56 L82 56 L82 36 Z" fill="white" opacity="0.7"/>
</svg>
