<svg width="32" height="32" viewBox="0 0 32 32" fill="none" xmlns="http://www.w3.org/2000/svg">
  <!-- 定义渐变 -->
  <defs>
    <linearGradient id="logoGradient" x1="0%" y1="0%" x2="100%" y2="100%">
      <stop offset="0%" style="stop-color:#D46A1A;stop-opacity:1" />
      <stop offset="100%" style="stop-color:#C45C3E;stop-opacity:1" />
    </linearGradient>
  </defs>

  <!-- 背景圆角矩形 -->
  <rect x="2" y="2" width="28" height="28" rx="6" fill="url(#logoGradient)" opacity="0.1"/>

  <!-- P 字母主体 -->
  <path d="M10 8 L10 24 L14 24 L14 18 L18 18 C21.3137 18 24 15.3137 24 12 C24 8.68629 21.3137 6 18 6 L10 6 L10 8 Z M14 10 L17 10 C18.6569 10 20 11.3431 20 13 C20 14.6569 18.6569 16 17 16 L14 16 L14 10 Z"
        fill="url(#logoGradient)"
        stroke="url(#logoGradient)"
        stroke-width="1.5"
        stroke-linejoin="round"/>

  <!-- 向上箭头 (代表变换/提升) -->
  <path d="M22 14 L26 10 L30 14"
        fill="none"
        stroke="url(#logoGradient)"
        stroke-width="2"
        stroke-linecap="round"
        stroke-linejoin="round"/>
  <path d="M26 10 L26 18"
        fill="none"
        stroke="url(#logoGradient)"
        stroke-width="2"
        stroke-linecap="round"/>

  <!-- XY 坐标轴装饰 -->
  <path d="M4 28 L4 24 M4 28 L8 28"
        stroke="url(#logoGradient)"
        stroke-width="1.5"
        stroke-linecap="round"
        opacity="0.6"/>
</svg>
